<?xml version="1.0" standalone="no"?>
<!DOCTYPE svg PUBLIC "-//W3C//DTD SVG 20010904//EN"
 "http://www.w3.org/TR/2001/REC-SVG-20010904/DTD/svg10.dtd">
<svg version="1.0" xmlns="http://www.w3.org/2000/svg"
 width="529.000000pt" height="529.000000pt" viewBox="0 0 529.000000 529.000000"
 preserveAspectRatio="xMidYMid meet">
<metadata>
Created by potrace 1.14, written by Peter Selinger 2001-2017
</metadata>
<g transform="translate(0.000000,529.000000) scale(0.100000,-0.100000)"
fill="#000000" stroke="none">
<path d="M1030 4391 c0 -558 -4 -902 -9 -906 -6 -3 -15 4 -22 17 -6 12 -22 32
-34 45 -19 21 -25 23 -48 12 -51 -23 -57 -11 -57 113 0 62 5 178 10 258 10
141 19 322 40 795 8 181 7 232 -2 242 -9 8 -77 16 -198 23 -102 6 -191 13
-197 15 -9 3 -13 25 -13 63 0 54 -2 60 -27 71 -16 7 -53 15 -83 17 -30 2 -98
9 -150 14 -52 5 -128 12 -167 14 l-73 5 0 -360 c0 -279 3 -359 13 -361 6 -1
111 -2 232 -2 l220 -1 45 -32 c24 -18 52 -33 62 -33 19 0 26 -35 9 -42 -14 -4
-22 -106 -9 -114 6 -4 8 -22 4 -45 -3 -22 -2 -40 4 -44 11 -7 8 -57 -5 -87 -4
-9 -3 -23 2 -30 4 -7 8 -22 8 -32 0 -11 5 -21 11 -23 8 -3 13 37 16 136 3 139
9 164 29 144 7 -7 9 -60 5 -164 -3 -85 -10 -255 -14 -379 -5 -124 -11 -232
-15 -241 -4 -8 -10 -118 -12 -245 -7 -345 -22 -713 -32 -764 -5 -25 -10 -133
-12 -240 -2 -107 -5 -199 -8 -203 -3 -5 -10 -118 -15 -250 -5 -133 -12 -281
-15 -329 l-4 -88 -64 0 c-54 0 -66 -3 -75 -20 -11 -21 1 -95 19 -113 6 -6 11
-20 11 -31 0 -21 17 -80 31 -108 5 -10 9 -29 9 -42 0 -14 5 -28 10 -31 6 -3
10 -20 10 -36 0 -25 -3 -29 -22 -24 -47 10 -245 25 -329 25 -48 0 -91 4 -94
10 -22 35 -25 -27 -25 -490 l0 -500 2291 0 2292 0 -8 472 c-14 784 -16 868
-30 982 -6 43 -5 57 4 52 13 -9 14 8 2 32 -5 9 -12 26 -16 36 -11 35 -14 10
-16 -109 -1 -114 -1 -117 -16 -86 -12 24 -13 35 -4 44 14 14 15 153 1 162 -6
4 -10 -12 -10 -42 -1 -37 -3 -44 -11 -30 -5 9 -19 17 -29 17 -13 0 -20 7 -20
20 0 13 7 20 20 20 11 0 23 7 27 15 9 24 -25 54 -65 57 -29 2 -37 8 -42 28 -4
18 -12 25 -30 25 -14 0 -24 -5 -23 -11 3 -17 -36 -11 -47 6 -5 8 -9 26 -9 40
1 17 3 19 6 7 10 -39 43 0 43 52 0 34 -3 41 -20 41 -12 0 -20 7 -20 16 0 9 -7
30 -16 47 -9 18 -21 40 -25 49 -12 24 -19 196 -20 478 -1 223 -3 238 -25 288
-12 28 -27 52 -32 52 -15 0 -64 90 -58 105 3 8 -1 27 -9 42 -8 15 -15 36 -15
45 0 9 -5 20 -10 23 -6 4 -22 25 -37 48 -14 23 -38 54 -53 68 -15 14 -30 41
-34 61 -7 39 9 88 30 88 9 0 7 15 -7 57 -11 31 -18 64 -16 74 7 25 -25 53 -41
37 -7 -7 -12 -20 -12 -30 0 -10 -4 -18 -10 -18 -5 0 -10 7 -10 15 0 24 -14 18
-33 -14 -22 -38 -23 -107 -1 -119 11 -6 13 -11 5 -16 -6 -4 -11 -16 -11 -27 0
-10 -3 -19 -8 -19 -17 0 -36 49 -41 110 l-6 65 -140 0 c-77 0 -146 4 -153 8
-22 14 -72 89 -72 106 0 9 7 24 14 33 12 16 19 17 89 5 42 -7 92 -11 112 -9
32 4 36 8 33 26 -4 21 -2 22 54 18 l58 -4 0 121 0 121 31 0 c17 0 45 7 62 15
18 8 48 15 67 17 34 3 35 5 38 47 2 26 10 50 19 56 8 6 17 32 20 58 5 44 7 47
35 47 28 0 29 2 23 30 -6 26 -4 30 14 30 19 0 21 6 21 56 0 47 -3 57 -20 61
-26 7 -26 33 0 33 16 0 20 7 20 34 0 30 3 35 28 38 20 2 28 9 30 28 2 14 10
29 18 33 8 4 14 23 14 42 0 29 4 34 27 37 17 2 29 10 33 23 3 13 13 20 30 20
20 0 24 4 22 22 -3 18 3 22 30 25 31 3 33 5 36 46 l3 42 43 0 c24 0 48 6 54
13 5 6 13 56 17 110 6 85 10 97 26 97 10 0 22 7 27 15 7 14 11 13 27 -5 17
-19 17 -21 2 -38 -10 -10 -17 -28 -17 -40 0 -12 -5 -31 -12 -41 -7 -11 -8 -26
-3 -37 8 -18 9 -18 12 3 2 12 12 27 20 35 15 11 16 11 10 -5 -4 -10 -1 -41 5
-70 l12 -52 6 50 c4 28 8 182 9 343 l2 292 -1790 0 -1791 0 0 -899z m3527 507
c-2 -13 -4 -3 -4 22 0 25 2 35 4 23 2 -13 2 -33 0 -45z m-4026 -419 c-16 -6
-28 -6 -35 1 -7 7 1 10 25 9 32 0 33 -1 10 -10z m149 -76 c0 -27 -4 -54 -9
-62 -10 -16 -31 -6 -31 15 0 8 -10 19 -22 24 l-23 9 22 0 c15 1 23 9 28 31 11
50 35 38 35 -17z m3418 40 c-16 -2 -40 -2 -55 0 -16 2 -3 4 27 4 30 0 43 -2
28 -4z m-3478 -83 c0 -5 -5 -10 -11 -10 -5 0 -7 5 -4 10 3 6 8 10 11 10 2 0 4
-4 4 -10z m2326 -60 c96 0 156 -23 189 -70 24 -34 26 -44 17 -64 -6 -13 -23
-32 -37 -43 -15 -10 -42 -31 -60 -46 l-34 -28 -102 37 c-55 21 -103 44 -106
51 -3 8 2 22 11 32 24 26 20 64 -9 89 -46 40 -28 65 35 51 19 -5 62 -9 96 -9z
m-206 -342 c0 -11 11 -31 25 -44 32 -29 31 -40 -2 -56 -21 -10 -28 -21 -28
-43 0 -34 -2 -34 -67 -6 -29 12 -48 27 -48 36 0 9 14 36 31 61 55 80 89 100
89 52z m884 -111 c-5 -23 -8 -26 -20 -16 -16 13 -19 39 -3 39 5 0 9 8 8 18 -4
41 3 56 12 22 5 -19 6 -48 3 -63z m126 53 c0 -5 -4 -10 -10 -10 -5 0 -10 5
-10 10 0 6 5 10 10 10 6 0 10 -4 10 -10z m-289 -26 c12 -15 11 -16 -11 -9 -35
10 -49 25 -23 25 11 0 27 -7 34 -16z m-327 -9 c14 -37 -96 -86 -151 -68 -63
21 -23 58 80 73 29 4 55 8 58 9 4 0 9 -6 13 -14z m636 -55 c0 -5 -9 -10 -21
-10 -11 0 -17 5 -14 10 3 6 13 10 21 10 8 0 14 -4 14 -10z m-356 -92 c-15 -53
-75 -78 -103 -44 -18 21 -2 31 107 65 2 1 0 -9 -4 -21z m-31 -124 c-3 -10 0
-20 9 -25 8 -5 15 -22 15 -41 0 -18 -2 -25 -4 -15 -3 9 -9 17 -14 17 -5 0 -9
9 -9 19 0 11 -5 21 -11 23 -12 4 -1 38 12 38 4 0 6 -7 2 -16z m115 -61 c-10
-2 -26 -2 -35 0 -10 3 -2 5 17 5 19 0 27 -2 18 -5z m-2635 -282 c5 -22 -1 -33
-14 -25 -12 7 -12 44 0 44 5 0 11 -9 14 -19z m283 -93 c-1 -29 2 -33 21 -30
33 5 100 -16 106 -33 3 -7 23 -17 44 -20 59 -10 66 -13 94 -39 26 -24 26 -27
21 -123 -2 -54 -10 -107 -16 -118 -6 -11 -11 -25 -11 -30 0 -6 -10 -20 -23
-33 -18 -18 -33 -22 -84 -22 -56 0 -68 4 -105 33 -82 66 -243 239 -243 262 0
4 9 5 20 2 24 -6 47 14 56 48 5 19 -1 30 -23 49 -15 13 -24 28 -20 32 4 5 12
3 16 -5 13 -20 54 -9 68 19 12 25 34 38 64 39 13 1 17 -7 15 -31z m-286 -50
c-1 -40 -17 -78 -34 -78 -4 0 -5 14 -2 30 3 17 9 44 12 60 8 45 24 36 24 -12z
m2970 -10 c0 -23 -3 -29 -9 -19 -7 10 -22 12 -62 7 -62 -7 -89 3 -64 24 13 11
23 11 45 3 22 -8 33 -8 47 3 30 22 43 17 43 -18z m-740 -50 c0 -7 -19 -32 -42
-55 -33 -34 -49 -43 -76 -43 -29 0 -32 -3 -27 -20 3 -11 2 -20 -3 -20 -5 0
-29 -16 -53 -35 -46 -37 -63 -42 -75 -24 -12 20 18 56 57 69 42 14 49 24 22
34 -14 6 -15 9 -2 21 8 7 30 18 49 23 27 8 29 10 12 11 -14 1 -22 6 -20 14 3
7 31 15 66 18 34 3 65 9 69 12 10 11 23 8 23 -5z m605 -59 c-4 -5 -13 -9 -22
-9 -13 0 -13 3 -3 15 13 15 35 11 25 -6z m-2783 -42 c31 -28 70 -69 87 -91
l31 -39 0 -755 0 -755 -70 7 c-38 3 -102 9 -140 12 -39 4 -72 9 -74 13 -5 8
10 363 30 731 9 168 18 339 19 380 2 41 8 89 13 105 25 74 32 136 32 285 0 88
3 160 8 160 4 0 32 -24 64 -53z m2957 0 c8 -10 7 -18 -3 -32 -15 -21 -36 -13
-36 14 0 31 20 40 39 18z m-2784 -267 c3 -5 1 -10 -4 -10 -6 0 -11 5 -11 10 0
6 2 10 4 10 3 0 8 -4 11 -10z m45 -71 c0 -16 -19 -9 -30 10 -17 33 -11 48 10
22 11 -13 20 -27 20 -32z m2827 -601 c-3 -7 -5 -2 -5 12 0 14 2 19 5 13 2 -7
2 -19 0 -25z m-1582 -478 c0 -18 -5 -25 -20 -25 -11 0 -25 -6 -31 -14 -9 -11
-12 -10 -17 10 -8 29 19 61 47 57 15 -2 21 -10 21 -28z m-125 11 c0 -12 -20
-25 -27 -18 -7 7 6 27 18 27 5 0 9 -4 9 -9z m186 -11 c12 -12 7 -110 -6 -123
-4 -5 -17 -6 -28 -3 -17 6 -19 13 -15 49 7 69 13 87 26 87 7 0 18 -5 23 -10z
m-1793 -187 c-18 -2 -48 -2 -65 0 -18 2 -4 4 32 4 36 0 50 -2 33 -4z m1927 -8
c0 -8 -4 -15 -9 -15 -13 0 -22 16 -14 24 11 11 23 6 23 -9z m-1503 -11 c-3 -3
-12 -4 -19 -1 -8 3 -5 6 6 6 11 1 17 -2 13 -5z m320 -10 c49 -13 7 -24 -92
-24 -95 0 -125 7 -108 24 8 8 170 8 200 0z m198 -34 c4 -6 -13 -10 -44 -10
-27 0 -53 5 -56 10 -4 6 13 10 44 10 27 0 53 -4 56 -10z m410 -30 c-8 -13
-175 -13 -195 0 -10 7 20 10 93 10 70 0 106 -4 102 -10z m185 -20 c0 -5 -9
-10 -21 -10 -11 0 -17 5 -14 10 3 6 13 10 21 10 8 0 14 -4 14 -10z m716 -339
c10 -10 54 -35 174 -99 47 -24 105 -56 130 -70 25 -13 73 -40 108 -58 34 -19
92 -50 130 -71 37 -20 144 -74 237 -120 267 -132 273 -135 286 -160 7 -13 10
-26 7 -29 -4 -3 -39 12 -80 34 -40 22 -138 73 -218 115 -355 183 -425 220
-430 227 -3 3 -39 23 -80 44 -77 39 -136 70 -228 120 -52 29 -52 29 -123 16
-39 -8 -76 -19 -83 -25 -6 -6 -20 -14 -31 -18 -11 -3 -51 -17 -89 -32 -38 -14
-79 -25 -90 -23 -24 3 -28 28 -6 38 8 4 25 12 37 18 13 7 29 12 37 12 13 0 83
26 153 56 17 8 38 14 46 14 9 0 19 5 22 10 8 12 78 13 91 1z"/>
<path d="M4384 4595 c-9 -23 12 -43 28 -27 7 7 20 12 31 12 31 0 13 25 -21 28
-23 2 -34 -2 -38 -13z"/>
<path d="M3777 3524 c-11 -12 -9 -18 22 -51 32 -35 75 -51 86 -33 9 15 -13 40
-36 40 -11 0 -19 9 -21 23 -3 22 -36 36 -51 21z"/>
<path d="M4435 1720 c-4 -6 3 -10 14 -10 25 0 27 6 6 13 -8 4 -17 2 -20 -3z"/>
</g>
</svg>
